<svg xmlns="http://www.w3.org/2000/svg" viewBox="0 0 1600 1000" preserveAspectRatio="xMidYMid slice">
<defs>
 <linearGradient id="sky" x1="0" y1="0" x2="0" y2="1"><stop stop-color="#cfeaff"/><stop offset=".72" stop-color="#f6fbff"/><stop offset="1" stop-color="#dceffb"/></linearGradient>
 <linearGradient id="ground" x1="0" y1="0" x2="0" y2="1"><stop stop-color="#d8edf8" stop-opacity=".25"/><stop offset="1" stop-color="#c4e1f0" stop-opacity=".72"/></linearGradient>
 <radialGradient id="glow"><stop stop-color="#fff" stop-opacity=".65"/><stop offset="1" stop-color="#fff" stop-opacity="0"/></radialGradient>
 <filter id="blur"><feGaussianBlur stdDeviation="18"/></filter>
</defs>
<rect width="1600" height="1000" fill="url(#sky)"/>
<ellipse cx="1160" cy="300" rx="520" ry="300" fill="url(#glow)" filter="url(#blur)"/>
<path d="M0 820 Q420 775 800 820 T1600 805 V1000H0Z" fill="url(#ground)"/>
<g fill="none" stroke="#fff" stroke-opacity=".42" stroke-width="3">
 <path d="M0 70 L210 0"/>
 <path d="M0 145 L310 0"/>
 <path d="M1360 1000 L1600 710"/>
 <path d="M1450 1000 L1600 820"/>
</g>
<g transform="translate(-115 235)" opacity=".34">
 <circle cx="250" cy="250" r="285" fill="#d9efff" stroke="#fff" stroke-width="3"/>
 <path d="M15 250h470M250 -35v570M55 92 Q250 210 445 92M55 408 Q250 290 445 408" fill="none" stroke="#fff" stroke-width="3"/>
 <path d="M120 45 Q185 90 235 155T270 255T350 430L420 470" fill="none" stroke="#fff" stroke-width="5"/>
 <circle cx="235" cy="155" r="7" fill="#fff"/><circle cx="270" cy="255" r="7" fill="#fff"/><circle cx="350" cy="430" r="7" fill="#fff"/>
 <path d="M112 80 Q175 125 210 185T265 300T370 395" fill="none" stroke="#fff" stroke-width="2"/>
</g>
<g opacity=".25" stroke="#fff" stroke-width="3" fill="none">
 <path d="M0 585 Q250 610 510 590 T1050 600 T1600 575"/>
 <path d="M0 700 Q300 675 600 705 T1200 690 T1600 710"/>
</g>
<g transform="translate(1090 340)" fill="#8bbfe0" opacity=".55">
 <path d="M0 40 L120 15 L225 42 L120 58 Z"/>
 <path d="M88 34 L142 -15 L165 -13 L135 39 Z"/>
 <path d="M96 47 L151 82 L170 80 L132 45 Z"/>
 <path d="M210 41 L245 28 L270 34 L225 48 Z"/>
</g>
<g transform="translate(1320 470)" opacity=".28" fill="#77b2d7">
 <path d="M70 0 L92 0 L100 245 L62 245 Z"/>
 <path d="M30 245 H132 L150 270 H12 Z"/>
 <path d="M45 15 L117 15 L126 38 L36 38 Z"/>
 <path d="M60 245 L42 350 H120 L102 245 Z"/>
</g>
<g opacity=".16" fill="#fff">
 <path d="M820 770 H1600 V820 H820Z"/>
 <path d="M900 835 H1600 V850 H900Z"/>
</g>
</svg>